<svg width="11" height="13" viewBox="0 0 11 13" fill="none" xmlns="http://www.w3.org/2000/svg">
<path d="M2.06028 12.2915C1.76105 12.2915 1.5048 12.1802 1.29153 11.9574C1.07862 11.7343 0.972168 11.4662 0.972168 11.1532V3.18487H2.06028V11.1532H8.0449V12.2915H2.06028ZM4.23651 10.0149C3.93728 10.0149 3.68121 9.9035 3.4683 9.68077C3.25503 9.45766 3.14839 9.18958 3.14839 8.87654V2.04654C3.14839 1.73349 3.25503 1.46542 3.4683 1.2423C3.68121 1.01957 3.93728 0.908203 4.23651 0.908203H9.13301C9.43225 0.908203 9.6885 1.01957 9.90177 1.2423C10.1147 1.46542 10.2211 1.73349 10.2211 2.04654V8.87654C10.2211 9.18958 10.1147 9.45766 9.90177 9.68077C9.6885 9.9035 9.43225 10.0149 9.13301 10.0149H4.23651ZM4.23651 8.87654H9.13301V2.04654H4.23651V8.87654ZM4.23651 8.87654V2.04654V8.87654Z" fill="#4081FF"/>
</svg>
