<svg width="17" height="16" viewBox="0 0 17 16" fill="none" xmlns="http://www.w3.org/2000/svg">
<path d="M8.27499 11.575C8.14166 11.575 8.01666 11.554 7.89999 11.512C7.78333 11.4707 7.67499 11.4 7.57499 11.3L3.97499 7.7C3.79166 7.51667 3.69999 7.28333 3.69999 7C3.69999 6.71667 3.79166 6.48333 3.97499 6.3C4.15833 6.11667 4.39566 6.02067 4.68699 6.012C4.97899 6.004 5.21666 6.09167 5.39999 6.275L7.27499 8.15V1C7.27499 0.716667 7.37099 0.479 7.56299 0.287C7.75433 0.0956668 7.99166 0 8.27499 0C8.55833 0 8.79599 0.0956668 8.98799 0.287C9.17933 0.479 9.27499 0.716667 9.27499 1V8.15L11.15 6.275C11.3333 6.09167 11.571 6.004 11.863 6.012C12.1543 6.02067 12.3917 6.11667 12.575 6.3C12.7583 6.48333 12.85 6.71667 12.85 7C12.85 7.28333 12.7583 7.51667 12.575 7.7L8.97499 11.3C8.87499 11.4 8.76666 11.4707 8.64999 11.512C8.53333 11.554 8.40833 11.575 8.27499 11.575ZM2.27499 16C1.72499 16 1.25433 15.8043 0.862994 15.413C0.470994 15.021 0.274994 14.55 0.274994 14V12C0.274994 11.7167 0.370661 11.479 0.561994 11.287C0.753994 11.0957 0.991661 11 1.27499 11C1.55833 11 1.79599 11.0957 1.98799 11.287C2.17933 11.479 2.27499 11.7167 2.27499 12V14H14.275V12C14.275 11.7167 14.371 11.479 14.563 11.287C14.7543 11.0957 14.9917 11 15.275 11C15.5583 11 15.7957 11.0957 15.987 11.287C16.179 11.479 16.275 11.7167 16.275 12V14C16.275 14.55 16.0793 15.021 15.688 15.413C15.296 15.8043 14.825 16 14.275 16H2.27499Z" fill="white"/>
</svg>
