<svg width="12" height="13" viewBox="0 0 12 13" fill="none" xmlns="http://www.w3.org/2000/svg">
<path d="M6.22829 9.14333C6.13343 9.14333 6.04449 9.12839 5.96149 9.09851C5.87849 9.0691 5.80141 9.01883 5.73027 8.94768L3.16902 6.38643C3.03858 6.256 2.97337 6.08999 2.97337 5.88841C2.97337 5.68683 3.03858 5.52082 3.16902 5.39039C3.29945 5.25996 3.4683 5.19166 3.67558 5.18549C3.88332 5.1798 4.05241 5.24217 4.18285 5.3726L5.51683 6.70659V1.61966C5.51683 1.41808 5.58513 1.24899 5.72173 1.11239C5.85786 0.976266 6.02671 0.908203 6.22829 0.908203C6.42987 0.908203 6.59896 0.976266 6.73556 1.11239C6.87168 1.24899 6.93975 1.41808 6.93975 1.61966V6.70659L8.27373 5.3726C8.40416 5.24217 8.57325 5.1798 8.781 5.18549C8.98827 5.19166 9.15712 5.25996 9.28756 5.39039C9.41799 5.52082 9.48321 5.68683 9.48321 5.88841C9.48321 6.08999 9.41799 6.256 9.28756 6.38643L6.72631 8.94768C6.65516 9.01883 6.57809 9.0691 6.49508 9.09851C6.41208 9.12839 6.32315 9.14333 6.22829 9.14333ZM1.95954 12.2915C1.56824 12.2915 1.23338 12.1523 0.954958 11.8739C0.676067 11.595 0.536621 11.2599 0.536621 10.8686V9.4457C0.536621 9.24412 0.604684 9.07503 0.74081 8.93843C0.87741 8.80231 1.0465 8.73424 1.24808 8.73424C1.44966 8.73424 1.61875 8.80231 1.75535 8.93843C1.89147 9.07503 1.95954 9.24412 1.95954 9.4457V10.8686H10.497V9.4457C10.497 9.24412 10.5653 9.07503 10.7019 8.93843C10.8381 8.80231 11.0069 8.73424 11.2085 8.73424C11.4101 8.73424 11.5789 8.80231 11.7151 8.93843C11.8517 9.07503 11.92 9.24412 11.92 9.4457V10.8686C11.92 11.2599 11.7807 11.595 11.5023 11.8739C11.2234 12.1523 10.8883 12.2915 10.497 12.2915H1.95954Z" fill="white"/>
</svg>
