<svg width="18" height="17" viewBox="0 0 18 17" fill="none" xmlns="http://www.w3.org/2000/svg">
<path d="M3.75479 2.82855C4.01107 2.82855 4.25684 2.72782 4.43805 2.54854C4.61927 2.36925 4.72107 2.12608 4.72107 1.87253C4.72107 1.61897 4.61927 1.37581 4.43805 1.19652C4.25684 1.01723 4.01107 0.916504 3.75479 0.916504H1.82224C1.56596 0.916504 1.32019 1.01723 1.13897 1.19652C0.957761 1.37581 0.855957 1.61897 0.855957 1.87253V15.2568C0.855957 15.5104 0.957761 15.7536 1.13897 15.9328C1.32019 16.1121 1.56596 16.2129 1.82224 16.2129H3.75479C4.01107 16.2129 4.25684 16.1121 4.43805 15.9328C4.61927 15.7536 4.72107 15.5104 4.72107 15.2568C4.72107 15.0033 4.61927 14.7601 4.43805 14.5808C4.25684 14.4015 4.01107 14.3008 3.75479 14.3008H2.78851V2.82855H3.75479ZM17.1088 8.01019L14.3839 4.1861C14.2361 3.97999 14.0118 3.84016 13.7601 3.79716C13.5085 3.75416 13.2498 3.81151 13.0407 3.95665C12.9362 4.02911 12.8473 4.12132 12.779 4.22798C12.7107 4.33463 12.6644 4.45361 12.6429 4.57805C12.6213 4.70249 12.6249 4.82993 12.6533 4.95299C12.6818 5.07606 12.7347 5.19233 12.8088 5.29509L14.4708 7.60866H6.65363C6.39736 7.60866 6.15158 7.70938 5.97037 7.88867C5.78915 8.06796 5.68735 8.31113 5.68735 8.56468C5.68735 8.81823 5.78915 9.0614 5.97037 9.24069C6.15158 9.41998 6.39736 9.5207 6.65363 9.5207H14.3839L12.6446 11.8152C12.5684 11.9156 12.513 12.0299 12.4815 12.1515C12.45 12.2731 12.4431 12.3997 12.461 12.524C12.479 12.6483 12.5215 12.7678 12.5861 12.8759C12.6508 12.9839 12.7363 13.0783 12.8378 13.1536C13.0051 13.2777 13.2085 13.3448 13.4176 13.3448C13.5676 13.3448 13.7155 13.3102 13.8497 13.2439C13.9839 13.1775 14.1006 13.0811 14.1906 12.9624L17.0894 9.1383C17.2132 8.9766 17.2818 8.78015 17.2852 8.57736C17.2887 8.37457 17.2269 8.17594 17.1088 8.01019Z" fill="#FF7878"/>
</svg>
