<svg width="19" height="15" viewBox="0 0 19 15" fill="none" xmlns="http://www.w3.org/2000/svg">
<path d="M4.61783 3.24368L5.79062 4.41749L5.7907 4.41758C5.85449 4.48128 5.93021 4.53179 6.01352 4.56623C6.09684 4.60067 6.18612 4.61837 6.27627 4.61831C6.36643 4.61824 6.45568 4.60042 6.53895 4.56586C6.62222 4.5313 6.69786 4.48068 6.76156 4.41689C6.82527 4.3531 6.87578 4.27738 6.91022 4.19407L6.81781 4.15586L6.91022 4.19406C6.94466 4.11075 6.96236 4.02147 6.96229 3.93131C6.96223 3.84116 6.94441 3.7519 6.90985 3.66864C6.87529 3.58537 6.82467 3.50972 6.76088 3.44602M4.61783 3.24368L6.76088 3.44602M4.61783 3.24368V13.3107C4.61783 13.4927 4.54553 13.6672 4.41685 13.7959C4.28817 13.9246 4.11363 13.9969 3.93165 13.9969C3.74966 13.9969 3.57513 13.9246 3.44644 13.7959C3.31776 13.6672 3.24547 13.4927 3.24547 13.3107V3.24368L2.07268 4.41749L2.07265 4.41753C2.00886 4.48131 1.93314 4.53191 1.8498 4.56643C1.76645 4.60095 1.67713 4.61872 1.58692 4.61872C1.49671 4.61872 1.40739 4.60095 1.32405 4.56643C1.24071 4.53191 1.16498 4.48131 1.10119 4.41753C1.03741 4.35374 0.98681 4.27801 0.952289 4.19467C0.917768 4.11133 0.9 4.02201 0.9 3.9318C0.9 3.84159 0.917768 3.75227 0.952289 3.66892C0.98681 3.58558 1.03741 3.50986 1.10119 3.44607L1.10121 3.44605L3.44592 1.10252L3.44594 1.1025L3.45413 1.09431L3.45516 1.09328L3.45517 1.09329C3.58424 0.967922 3.75753 0.898483 3.93747 0.900025C4.11736 0.901567 4.2894 0.973938 4.41631 1.10145C4.41633 1.10148 4.41636 1.1015 4.41638 1.10153L6.76088 3.44602M4.61783 3.24368L6.76088 3.44602M6.76088 3.44602L6.76093 3.44607L6.69022 3.51678L6.76088 3.44602ZM8.72208 2.27423C8.59339 2.40292 8.5211 2.57745 8.5211 2.75944C8.5211 2.94142 8.59339 3.11595 8.72208 3.24464C8.85076 3.37332 9.02529 3.44562 9.20728 3.44562H17.4138C17.5958 3.44562 17.7703 3.37332 17.899 3.24464C18.0277 3.11595 18.1 2.94142 18.1 2.75944C18.1 2.57745 18.0277 2.40292 17.899 2.27423C17.7703 2.14555 17.5958 2.07325 17.4138 2.07325H9.20728C9.02529 2.07325 8.85076 2.14555 8.72208 2.27423ZM9.20728 5.59034C9.02529 5.59034 8.85076 5.66264 8.72208 5.79132C8.59339 5.92 8.5211 6.09454 8.5211 6.27652C8.5211 6.45851 8.59339 6.63304 8.72208 6.76173C8.85076 6.89041 9.02529 6.9627 9.20728 6.9627H15.0691C15.2511 6.9627 15.4256 6.89041 15.5543 6.76173C15.683 6.63304 15.7553 6.45851 15.7553 6.27652C15.7553 6.09454 15.683 5.92 15.5543 5.79132C15.4256 5.66264 15.2511 5.59034 15.0691 5.59034H9.20728ZM9.20728 9.10743C9.02529 9.10743 8.85076 9.17972 8.72208 9.30841C8.59339 9.43709 8.5211 9.61162 8.5211 9.79361C8.5211 9.9756 8.59339 10.1501 8.72208 10.2788C8.85076 10.4075 9.02529 10.4798 9.20728 10.4798H12.7244C12.9064 10.4798 13.0809 10.4075 13.2096 10.2788C13.3383 10.1501 13.4106 9.9756 13.4106 9.79361C13.4106 9.61162 13.3383 9.43709 13.2096 9.30841C13.0809 9.17972 12.9064 9.10743 12.7244 9.10743H9.20728ZM9.20728 12.6245C9.02529 12.6245 8.85076 12.6968 8.72208 12.8255C8.59339 12.9542 8.5211 13.1287 8.5211 13.3107C8.5211 13.4927 8.59339 13.6672 8.72208 13.7959C8.85076 13.9246 9.02529 13.9969 9.20728 13.9969H10.3796C10.5616 13.9969 10.7362 13.9246 10.8648 13.7959C10.9935 13.6672 11.0658 13.4927 11.0658 13.3107C11.0658 13.1287 10.9935 12.9542 10.8648 12.8255C10.7362 12.6968 10.5616 12.6245 10.3796 12.6245H9.20728Z" fill="#414141" stroke="#414141" stroke-width="0.2"/>
</svg>
