<svg width="13" height="13" viewBox="0 0 13 13" fill="none" xmlns="http://www.w3.org/2000/svg">
<path fill-rule="evenodd" clip-rule="evenodd" d="M5.73001 0.408569C4.88802 0.408641 4.05826 0.610067 3.30995 0.996042C2.56164 1.38202 1.91648 1.94135 1.4283 2.62737C0.940115 3.31339 0.623069 4.10622 0.50361 4.93969C0.384151 5.77316 0.465742 6.62312 0.741576 7.41864C1.01741 8.21417 1.47949 8.9322 2.08926 9.51282C2.69903 10.0934 3.43882 10.5198 4.24689 10.7564C5.05496 10.993 5.90789 11.0329 6.73452 10.8728C7.56115 10.7127 8.3375 10.3572 8.99881 9.83602L11.2675 12.1047C11.3846 12.2178 11.5415 12.2804 11.7044 12.279C11.8673 12.2776 12.0231 12.2123 12.1383 12.0971C12.2535 11.9819 12.3188 11.8261 12.3202 11.6632C12.3216 11.5004 12.259 11.3434 12.1459 11.2263L9.8772 8.95763C10.491 8.17902 10.8731 7.24335 10.9799 6.25769C11.0867 5.27204 10.9139 4.27622 10.4812 3.38421C10.0484 2.4922 9.37333 1.74004 8.53309 1.2138C7.69286 0.687558 6.72144 0.408503 5.73001 0.408569ZM1.69216 5.68884C1.69216 4.61793 2.11758 3.59089 2.87482 2.83364C3.63207 2.0764 4.65911 1.65099 5.73001 1.65099C6.80092 1.65099 7.82796 2.0764 8.58521 2.83364C9.34245 3.59089 9.76787 4.61793 9.76787 5.68884C9.76787 6.75974 9.34245 7.78679 8.58521 8.54403C7.82796 9.30128 6.80092 9.72669 5.73001 9.72669C4.65911 9.72669 3.63207 9.30128 2.87482 8.54403C2.11758 7.78679 1.69216 6.75974 1.69216 5.68884Z" fill="white"/>
</svg>
