<svg width="21" height="20" viewBox="0 0 21 20" fill="none" xmlns="http://www.w3.org/2000/svg">
<path fill-rule="evenodd" clip-rule="evenodd" d="M9.82106 2.00628e-08C8.40243 0.000120879 7.0044 0.339494 5.74361 0.989804C4.48282 1.64011 3.39582 2.5825 2.57331 3.73835C1.7508 4.8942 1.21662 6.22998 1.01535 7.63426C0.814079 9.03854 0.951548 10.4706 1.41629 11.8109C1.88103 13.1513 2.65956 14.361 3.68694 15.3393C4.71431 16.3176 5.96073 17.036 7.32222 17.4346C8.6837 17.8331 10.1208 17.9004 11.5135 17.6306C12.9062 17.3609 14.2143 16.7619 15.3285 15.8839L19.1508 19.7062C19.3482 19.8968 19.6126 20.0023 19.887 20C20.1615 19.9976 20.424 19.8875 20.618 19.6934C20.8121 19.4994 20.9222 19.2369 20.9246 18.9625C20.9269 18.688 20.8214 18.4236 20.6308 18.2262L16.8085 14.4039C17.8425 13.0921 18.4864 11.5156 18.6663 9.8549C18.8463 8.19422 18.5551 6.51642 17.826 5.01352C17.097 3.51061 15.9595 2.24333 14.5438 1.35669C13.1282 0.470054 11.4915 -0.000112141 9.82106 2.00628e-08ZM3.01788 8.89647C3.01788 7.09215 3.73464 5.36173 5.01049 4.08589C6.28633 2.81005 8.01675 2.09329 9.82106 2.09329C11.6254 2.09329 13.3558 2.81005 14.6316 4.08589C15.9075 5.36173 16.6242 7.09215 16.6242 8.89647C16.6242 10.7008 15.9075 12.4312 14.6316 13.707C13.3558 14.9829 11.6254 15.6996 9.82106 15.6996C8.01675 15.6996 6.28633 14.9829 5.01049 13.707C3.73464 12.4312 3.01788 10.7008 3.01788 8.89647Z" fill="white"/>
</svg>
