<svg width="88" height="24" viewBox="0 0 88 24" fill="none" xmlns="http://www.w3.org/2000/svg">
<path d="M3.92 0.599998V19.48H13.04V23H0.24V0.599998H3.92ZM33.0538 20.056C30.8138 22.296 28.0724 23.416 24.8298 23.416C21.5871 23.416 18.8351 22.296 16.5738 20.056C14.3338 17.7947 13.2138 15.0427 13.2138 11.8C13.2138 8.55733 14.3338 5.816 16.5738 3.576C18.8351 1.31466 21.5871 0.183998 24.8298 0.183998C28.0724 0.183998 30.8138 1.31466 33.0538 3.576C35.3151 5.816 36.4458 8.55733 36.4458 11.8C36.4458 15.0427 35.3151 17.7947 33.0538 20.056ZM19.1658 17.56C20.7231 19.0747 22.6111 19.832 24.8298 19.832C27.0698 19.832 28.9471 19.0747 30.4618 17.56C31.9978 16.024 32.7658 14.104 32.7658 11.8C32.7658 9.496 31.9978 7.58667 30.4618 6.072C28.9471 4.536 27.0698 3.768 24.8298 3.768C22.5898 3.768 20.7018 4.536 19.1658 6.072C17.6511 7.58667 16.8938 9.496 16.8938 11.8C16.8938 14.0827 17.6511 16.0027 19.1658 17.56ZM50.3945 11.416H61.5945V12.952C61.5945 16.024 60.5812 18.5413 58.5545 20.504C56.5492 22.4453 53.9038 23.416 50.6185 23.416C47.1625 23.416 44.3038 22.296 42.0425 20.056C39.8025 17.816 38.6825 15.064 38.6825 11.8C38.6825 8.55733 39.8025 5.816 42.0425 3.576C44.3038 1.31466 47.0985 0.183998 50.4265 0.183998C52.4958 0.183998 54.3945 0.663998 56.1225 1.624C57.8718 2.56267 59.2265 3.85333 60.1865 5.496L57.0185 7.32C56.4212 6.232 55.5358 5.368 54.3625 4.728C53.1892 4.088 51.8772 3.768 50.4265 3.768C48.0798 3.768 46.1492 4.536 44.6345 6.072C43.1198 7.62933 42.3625 9.54933 42.3625 11.832C42.3625 14.136 43.1198 16.0453 44.6345 17.56C46.1918 19.0747 48.1972 19.832 50.6505 19.832C52.6132 19.832 54.2238 19.3733 55.4825 18.456C56.7412 17.5387 57.5412 16.2907 57.8825 14.712H50.3945V11.416ZM83.6788 20.056C81.4388 22.296 78.6974 23.416 75.4548 23.416C72.2121 23.416 69.4601 22.296 67.1988 20.056C64.9588 17.7947 63.8388 15.0427 63.8388 11.8C63.8388 8.55733 64.9588 5.816 67.1988 3.576C69.4601 1.31466 72.2121 0.183998 75.4548 0.183998C78.6974 0.183998 81.4388 1.31466 83.6788 3.576C85.9401 5.816 87.0708 8.55733 87.0708 11.8C87.0708 15.0427 85.9401 17.7947 83.6788 20.056ZM69.7908 17.56C71.3481 19.0747 73.2361 19.832 75.4548 19.832C77.6948 19.832 79.5721 19.0747 81.0868 17.56C82.6228 16.024 83.3908 14.104 83.3908 11.8C83.3908 9.496 82.6228 7.58667 81.0868 6.072C79.5721 4.536 77.6948 3.768 75.4548 3.768C73.2148 3.768 71.3268 4.536 69.7908 6.072C68.2761 7.58667 67.5188 9.496 67.5188 11.8C67.5188 14.0827 68.2761 16.0027 69.7908 17.56Z" fill="#989898"/>
<path d="M3.92 0.599998V19.48H13.04V23H0.24V0.599998H3.92ZM33.0538 20.056C30.8138 22.296 28.0724 23.416 24.8298 23.416C21.5871 23.416 18.8351 22.296 16.5738 20.056C14.3338 17.7947 13.2138 15.0427 13.2138 11.8C13.2138 8.55733 14.3338 5.816 16.5738 3.576C18.8351 1.31466 21.5871 0.183998 24.8298 0.183998C28.0724 0.183998 30.8138 1.31466 33.0538 3.576C35.3151 5.816 36.4458 8.55733 36.4458 11.8C36.4458 15.0427 35.3151 17.7947 33.0538 20.056ZM19.1658 17.56C20.7231 19.0747 22.6111 19.832 24.8298 19.832C27.0698 19.832 28.9471 19.0747 30.4618 17.56C31.9978 16.024 32.7658 14.104 32.7658 11.8C32.7658 9.496 31.9978 7.58667 30.4618 6.072C28.9471 4.536 27.0698 3.768 24.8298 3.768C22.5898 3.768 20.7018 4.536 19.1658 6.072C17.6511 7.58667 16.8938 9.496 16.8938 11.8C16.8938 14.0827 17.6511 16.0027 19.1658 17.56ZM50.3945 11.416H61.5945V12.952C61.5945 16.024 60.5812 18.5413 58.5545 20.504C56.5492 22.4453 53.9038 23.416 50.6185 23.416C47.1625 23.416 44.3038 22.296 42.0425 20.056C39.8025 17.816 38.6825 15.064 38.6825 11.8C38.6825 8.55733 39.8025 5.816 42.0425 3.576C44.3038 1.31466 47.0985 0.183998 50.4265 0.183998C52.4958 0.183998 54.3945 0.663998 56.1225 1.624C57.8718 2.56267 59.2265 3.85333 60.1865 5.496L57.0185 7.32C56.4212 6.232 55.5358 5.368 54.3625 4.728C53.1892 4.088 51.8772 3.768 50.4265 3.768C48.0798 3.768 46.1492 4.536 44.6345 6.072C43.1198 7.62933 42.3625 9.54933 42.3625 11.832C42.3625 14.136 43.1198 16.0453 44.6345 17.56C46.1918 19.0747 48.1972 19.832 50.6505 19.832C52.6132 19.832 54.2238 19.3733 55.4825 18.456C56.7412 17.5387 57.5412 16.2907 57.8825 14.712H50.3945V11.416ZM83.6788 20.056C81.4388 22.296 78.6974 23.416 75.4548 23.416C72.2121 23.416 69.4601 22.296 67.1988 20.056C64.9588 17.7947 63.8388 15.0427 63.8388 11.8C63.8388 8.55733 64.9588 5.816 67.1988 3.576C69.4601 1.31466 72.2121 0.183998 75.4548 0.183998C78.6974 0.183998 81.4388 1.31466 83.6788 3.576C85.9401 5.816 87.0708 8.55733 87.0708 11.8C87.0708 15.0427 85.9401 17.7947 83.6788 20.056ZM69.7908 17.56C71.3481 19.0747 73.2361 19.832 75.4548 19.832C77.6948 19.832 79.5721 19.0747 81.0868 17.56C82.6228 16.024 83.3908 14.104 83.3908 11.8C83.3908 9.496 82.6228 7.58667 81.0868 6.072C79.5721 4.536 77.6948 3.768 75.4548 3.768C73.2148 3.768 71.3268 4.536 69.7908 6.072C68.2761 7.58667 67.5188 9.496 67.5188 11.8C67.5188 14.0827 68.2761 16.0027 69.7908 17.56Z" fill="url(#paint0_linear_1_542)"/>
<defs>
<linearGradient id="paint0_linear_1_542" x1="-2" y1="14.5" x2="89" y2="14.5" gradientUnits="userSpaceOnUse">
<stop stop-color="#08A5F4"/>
<stop offset="0.631987" stop-color="#B30AF1"/>
<stop offset="1" stop-color="#F13596"/>
</linearGradient>
</defs>
</svg>
