<svg width="63" height="18" viewBox="0 0 63 18" fill="none" xmlns="http://www.w3.org/2000/svg">
<path d="M3.47648 0.889382V14.3217H9.96498V16.826H0.858315V0.889382H3.47648ZM24.2039 14.7315C22.6103 16.3252 20.6599 17.122 18.3529 17.122C16.0459 17.122 14.0879 16.3252 12.4791 14.7315C10.8854 13.1227 10.0886 11.1647 10.0886 8.85772C10.0886 6.55069 10.8854 4.60035 12.4791 3.00668C14.0879 1.39784 16.0459 0.593415 18.3529 0.593415C20.6599 0.593415 22.6103 1.39784 24.2039 3.00668C25.8128 4.60035 26.6172 6.55069 26.6172 8.85772C26.6172 11.1647 25.8128 13.1227 24.2039 14.7315ZM14.3232 12.9557C15.4312 14.0333 16.7744 14.5721 18.3529 14.5721C19.9466 14.5721 21.2822 14.0333 22.3598 12.9557C23.4526 11.8629 23.999 10.4969 23.999 8.85772C23.999 7.21852 23.4526 5.8601 22.3598 4.78248C21.2822 3.68968 19.9466 3.14328 18.3529 3.14328C16.7592 3.14328 15.416 3.68968 14.3232 4.78248C13.2456 5.8601 12.7068 7.21852 12.7068 8.85772C12.7068 10.4817 13.2456 11.8477 14.3232 12.9557ZM36.5412 8.58452H44.5095V9.67732C44.5095 11.8629 43.7885 13.6539 42.3467 15.0502C40.9199 16.4314 39.0379 17.122 36.7005 17.122C34.2417 17.122 32.2079 16.3252 30.5991 14.7315C29.0054 13.1378 28.2086 11.1799 28.2086 8.85772C28.2086 6.55069 29.0054 4.60035 30.5991 3.00668C32.2079 1.39784 34.1962 0.593415 36.5639 0.593415C38.0362 0.593415 39.387 0.934915 40.6164 1.61792C41.861 2.28574 42.8248 3.20399 43.5078 4.37268L41.2539 5.67038C40.8289 4.89632 40.199 4.28162 39.3642 3.82628C38.5294 3.37095 37.596 3.14328 36.5639 3.14328C34.8944 3.14328 33.5208 3.68968 32.4432 4.78248C31.3655 5.89046 30.8267 7.25646 30.8267 8.88048C30.8267 10.5197 31.3655 11.8781 32.4432 12.9557C33.5511 14.0333 34.9778 14.5721 36.7233 14.5721C38.1196 14.5721 39.2656 14.2458 40.1611 13.5932C41.0565 12.9405 41.6257 12.0526 41.8686 10.9295H36.5412V8.58452ZM60.2215 14.7315C58.6278 16.3252 56.6775 17.122 54.3705 17.122C52.0635 17.122 50.1055 16.3252 48.4967 14.7315C46.903 13.1227 46.1062 11.1647 46.1062 8.85772C46.1062 6.55069 46.903 4.60035 48.4967 3.00668C50.1055 1.39784 52.0635 0.593415 54.3705 0.593415C56.6775 0.593415 58.6278 1.39784 60.2215 3.00668C61.8304 4.60035 62.6348 6.55069 62.6348 8.85772C62.6348 11.1647 61.8304 13.1227 60.2215 14.7315ZM50.3408 12.9557C51.4488 14.0333 52.792 14.5721 54.3705 14.5721C55.9641 14.5721 57.2998 14.0333 58.3774 12.9557C59.4702 11.8629 60.0166 10.4969 60.0166 8.85772C60.0166 7.21852 59.4702 5.8601 58.3774 4.78248C57.2998 3.68968 55.9641 3.14328 54.3705 3.14328C52.7768 3.14328 51.4336 3.68968 50.3408 4.78248C49.2632 5.8601 48.7243 7.21852 48.7243 8.85772C48.7243 10.4817 49.2632 11.8477 50.3408 12.9557Z" fill="#989898"/>
<path d="M3.47648 0.889382V14.3217H9.96498V16.826H0.858315V0.889382H3.47648ZM24.2039 14.7315C22.6103 16.3252 20.6599 17.122 18.3529 17.122C16.0459 17.122 14.0879 16.3252 12.4791 14.7315C10.8854 13.1227 10.0886 11.1647 10.0886 8.85772C10.0886 6.55069 10.8854 4.60035 12.4791 3.00668C14.0879 1.39784 16.0459 0.593415 18.3529 0.593415C20.6599 0.593415 22.6103 1.39784 24.2039 3.00668C25.8128 4.60035 26.6172 6.55069 26.6172 8.85772C26.6172 11.1647 25.8128 13.1227 24.2039 14.7315ZM14.3232 12.9557C15.4312 14.0333 16.7744 14.5721 18.3529 14.5721C19.9466 14.5721 21.2822 14.0333 22.3598 12.9557C23.4526 11.8629 23.999 10.4969 23.999 8.85772C23.999 7.21852 23.4526 5.8601 22.3598 4.78248C21.2822 3.68968 19.9466 3.14328 18.3529 3.14328C16.7592 3.14328 15.416 3.68968 14.3232 4.78248C13.2456 5.8601 12.7068 7.21852 12.7068 8.85772C12.7068 10.4817 13.2456 11.8477 14.3232 12.9557ZM36.5412 8.58452H44.5095V9.67732C44.5095 11.8629 43.7885 13.6539 42.3467 15.0502C40.9199 16.4314 39.0379 17.122 36.7005 17.122C34.2417 17.122 32.2079 16.3252 30.5991 14.7315C29.0054 13.1378 28.2086 11.1799 28.2086 8.85772C28.2086 6.55069 29.0054 4.60035 30.5991 3.00668C32.2079 1.39784 34.1962 0.593415 36.5639 0.593415C38.0362 0.593415 39.387 0.934915 40.6164 1.61792C41.861 2.28574 42.8248 3.20399 43.5078 4.37268L41.2539 5.67038C40.8289 4.89632 40.199 4.28162 39.3642 3.82628C38.5294 3.37095 37.596 3.14328 36.5639 3.14328C34.8944 3.14328 33.5208 3.68968 32.4432 4.78248C31.3655 5.89046 30.8267 7.25646 30.8267 8.88048C30.8267 10.5197 31.3655 11.8781 32.4432 12.9557C33.5511 14.0333 34.9778 14.5721 36.7233 14.5721C38.1196 14.5721 39.2656 14.2458 40.1611 13.5932C41.0565 12.9405 41.6257 12.0526 41.8686 10.9295H36.5412V8.58452ZM60.2215 14.7315C58.6278 16.3252 56.6775 17.122 54.3705 17.122C52.0635 17.122 50.1055 16.3252 48.4967 14.7315C46.903 13.1227 46.1062 11.1647 46.1062 8.85772C46.1062 6.55069 46.903 4.60035 48.4967 3.00668C50.1055 1.39784 52.0635 0.593415 54.3705 0.593415C56.6775 0.593415 58.6278 1.39784 60.2215 3.00668C61.8304 4.60035 62.6348 6.55069 62.6348 8.85772C62.6348 11.1647 61.8304 13.1227 60.2215 14.7315ZM50.3408 12.9557C51.4488 14.0333 52.792 14.5721 54.3705 14.5721C55.9641 14.5721 57.2998 14.0333 58.3774 12.9557C59.4702 11.8629 60.0166 10.4969 60.0166 8.85772C60.0166 7.21852 59.4702 5.8601 58.3774 4.78248C57.2998 3.68968 55.9641 3.14328 54.3705 3.14328C52.7768 3.14328 51.4336 3.68968 50.3408 4.78248C49.2632 5.8601 48.7243 7.21852 48.7243 8.85772C48.7243 10.4817 49.2632 11.8477 50.3408 12.9557Z" fill="url(#paint0_linear_133_1131)"/>
<defs>
<linearGradient id="paint0_linear_133_1131" x1="-0.735352" y1="10.8261" x2="64.2646" y2="10.8261" gradientUnits="userSpaceOnUse">
<stop stop-color="#08A5F4"/>
<stop offset="0.631987" stop-color="#B30AF1"/>
<stop offset="1" stop-color="#F13596"/>
</linearGradient>
</defs>
</svg>
