<svg width="29" height="29" viewBox="0 0 29 29" fill="none" xmlns="http://www.w3.org/2000/svg">
<path d="M14.5 0C11.6322 0 8.82875 0.85041 6.44424 2.44369C4.05972 4.03697 2.20122 6.30156 1.10375 8.95109C0.00628262 11.6006 -0.280866 14.5161 0.27862 17.3288C0.838105 20.1415 2.2191 22.7252 4.24696 24.753C6.27482 26.7809 8.85847 28.1619 11.6712 28.7214C14.4839 29.2809 17.3994 28.9937 20.0489 27.8962C22.6984 26.7988 24.963 24.9403 26.5563 22.5558C28.1496 20.1712 29 17.3678 29 14.5C28.9926 10.6566 27.4626 6.97277 24.7449 4.25509C22.0272 1.53741 18.3434 0.00736987 14.5 0ZM22.3913 15.4202L16.8144 19.324C16.6236 19.4488 16.4011 19.5165 16.1731 19.5192C15.8773 19.5192 15.5936 19.4017 15.3844 19.1925C15.1752 18.9834 15.0577 18.6997 15.0577 18.4038V14.5C15.0566 14.6799 15.0132 14.8569 14.9308 15.0168C14.8484 15.1767 14.7295 15.3149 14.5837 15.4202L9.00673 19.324C8.81586 19.4488 8.59338 19.5165 8.36539 19.5192C8.06957 19.5192 7.78587 19.4017 7.57669 19.1925C7.36752 18.9834 7.25 18.6997 7.25 18.4038V10.5962C7.25135 10.3924 7.30778 10.1928 7.41333 10.0186C7.51887 9.8443 7.66959 9.70183 7.84952 9.60625C8.03027 9.51069 8.23381 9.46665 8.4379 9.47895C8.64198 9.49124 8.83876 9.55939 9.00673 9.67596L14.5837 13.5798C14.7295 13.6851 14.8484 13.8233 14.9308 13.9832C15.0132 14.1431 15.0566 14.3201 15.0577 14.5V10.5962C15.059 10.3924 15.1155 10.1928 15.221 10.0186C15.3266 9.8443 15.4773 9.70183 15.6572 9.60625C15.838 9.51069 16.0415 9.46665 16.2456 9.47895C16.4497 9.49124 16.6465 9.55939 16.8144 9.67596L22.3913 13.5798C22.5381 13.6842 22.6578 13.8222 22.7403 13.9823C22.8229 14.1424 22.866 14.3199 22.866 14.5C22.866 14.6801 22.8229 14.8576 22.7403 15.0177C22.6578 15.1778 22.5381 15.3158 22.3913 15.4202Z" fill="black"/>
</svg>
