<svg width="22" height="22" viewBox="0 0 22 22" fill="none" xmlns="http://www.w3.org/2000/svg">
<path d="M11.011 0.639526C8.97063 0.639526 6.97611 1.24456 5.27963 2.37811C3.58315 3.51166 2.2609 5.12282 1.4801 7.00785C0.699294 8.89288 0.495 10.9671 0.893051 12.9683C1.2911 14.9694 2.27362 16.8075 3.71636 18.2503C5.1591 19.693 6.99726 20.6755 8.99839 21.0736C10.9995 21.4716 13.0738 21.2673 14.9588 20.4865C16.8438 19.7057 18.455 18.3835 19.5885 16.687C20.7221 14.9905 21.3271 12.996 21.3271 10.9557C21.3219 8.22127 20.2333 5.60036 18.2998 3.66685C16.3663 1.73333 13.7454 0.64477 11.011 0.639526ZM16.6253 11.6103L12.6576 14.3878C12.5218 14.4765 12.3635 14.5247 12.2013 14.5266C11.9908 14.5266 11.789 14.443 11.6402 14.2942C11.4914 14.1454 11.4077 13.9436 11.4077 13.7331V10.9557C11.407 11.0836 11.3761 11.2096 11.3175 11.3234C11.2589 11.4371 11.1742 11.5354 11.0705 11.6103L7.10274 14.3878C6.96694 14.4765 6.80866 14.5247 6.64645 14.5266C6.43599 14.5266 6.23415 14.443 6.08533 14.2942C5.93651 14.1454 5.8529 13.9436 5.8529 13.7331V8.17825C5.85386 8.0333 5.89401 7.89131 5.9691 7.76732C6.04419 7.64333 6.15142 7.54197 6.27943 7.47397C6.40803 7.40599 6.55284 7.37466 6.69804 7.3834C6.84324 7.39215 6.98324 7.44064 7.10274 7.52357L11.0705 10.301C11.1742 10.3759 11.2589 10.4742 11.3175 10.588C11.3761 10.7017 11.407 10.8277 11.4077 10.9557V8.17825C11.4087 8.0333 11.4489 7.89131 11.5239 7.76732C11.599 7.64333 11.7063 7.54197 11.8343 7.47397C11.9629 7.40599 12.1077 7.37466 12.2529 7.3834C12.3981 7.39215 12.5381 7.44064 12.6576 7.52357L16.6253 10.301C16.7297 10.3753 16.8149 10.4735 16.8736 10.5874C16.9324 10.7012 16.963 10.8275 16.963 10.9557C16.963 11.0838 16.9324 11.2101 16.8736 11.324C16.8149 11.4379 16.7297 11.5361 16.6253 11.6103Z" fill="black"/>
</svg>
