<svg width="29" height="29" viewBox="0 0 29 29" fill="none" xmlns="http://www.w3.org/2000/svg">
<path d="M10.875 10.6213V18.3788C10.875 18.9346 11.1287 19.3575 11.6362 19.6475C12.1437 19.9375 12.6392 19.9133 13.1225 19.575L19.14 15.7325C19.5992 15.4425 19.8288 15.0317 19.8288 14.5C19.8288 13.9683 19.5992 13.5575 19.14 13.2675L13.1225 9.425C12.6392 9.08667 12.1437 9.0625 11.6362 9.3525C11.1287 9.6425 10.875 10.0654 10.875 10.6213ZM14.5 29C12.4942 29 10.6092 28.6191 8.845 27.8574C7.08083 27.0966 5.54625 26.0638 4.24125 24.7588C2.93625 23.4538 1.90337 21.9192 1.1426 20.155C0.380867 18.3908 0 16.5058 0 14.5C0 12.4942 0.380867 10.6092 1.1426 8.845C1.90337 7.08083 2.93625 5.54625 4.24125 4.24125C5.54625 2.93625 7.08083 1.90288 8.845 1.14115C10.6092 0.380383 12.4942 0 14.5 0C16.5058 0 18.3908 0.380383 20.155 1.14115C21.9192 1.90288 23.4538 2.93625 24.7588 4.24125C26.0638 5.54625 27.0966 7.08083 27.8574 8.845C28.6191 10.6092 29 12.4942 29 14.5C29 16.5058 28.6191 18.3908 27.8574 20.155C27.0966 21.9192 26.0638 23.4538 24.7588 24.7588C23.4538 26.0638 21.9192 27.0966 20.155 27.8574C18.3908 28.6191 16.5058 29 14.5 29Z" fill="black"/>
</svg>
