<svg width="22" height="22" viewBox="0 0 22 22" fill="none" xmlns="http://www.w3.org/2000/svg">
<path d="M8.23076 8.1961V13.7152C8.23076 14.1107 8.41129 14.4116 8.77236 14.6179C9.13342 14.8242 9.48589 14.807 9.82976 14.5663L14.111 11.8325C14.4376 11.6262 14.601 11.3339 14.601 10.9557C14.601 10.5774 14.4376 10.2851 14.111 10.0788L9.82976 7.34502C9.48589 7.10431 9.13342 7.08712 8.77236 7.29344C8.41129 7.49976 8.23076 7.80065 8.23076 8.1961ZM10.8098 21.2718C9.38273 21.2718 8.04163 21.0008 6.7865 20.4589C5.53137 19.9177 4.43958 19.1828 3.51113 18.2543C2.58267 17.3259 1.84782 16.2341 1.30656 14.979C0.764623 13.7238 0.493652 12.3827 0.493652 10.9557C0.493652 9.52861 0.764623 8.18751 1.30656 6.93238C1.84782 5.67724 2.58267 4.58545 3.51113 3.657C4.43958 2.72855 5.53137 1.99335 6.7865 1.45141C8.04163 0.910153 9.38273 0.639526 10.8098 0.639526C12.2369 0.639526 13.578 0.910153 14.8331 1.45141C16.0882 1.99335 17.18 2.72855 18.1085 3.657C19.0369 4.58545 19.7718 5.67724 20.313 6.93238C20.855 8.18751 21.1259 9.52861 21.1259 10.9557C21.1259 12.3827 20.855 13.7238 20.313 14.979C19.7718 16.2341 19.0369 17.3259 18.1085 18.2543C17.18 19.1828 16.0882 19.9177 14.8331 20.4589C13.578 21.0008 12.2369 21.2718 10.8098 21.2718Z" fill="black"/>
</svg>
