<svg width="22" height="22" viewBox="0 0 22 22" fill="none" xmlns="http://www.w3.org/2000/svg">
<path d="M10.7068 21.2718C12.7471 21.2718 14.7417 20.6668 16.4381 19.5333C18.1346 18.3997 19.4569 16.7886 20.2377 14.9035C21.0185 13.0185 21.2228 10.9443 20.8247 8.94313C20.4267 6.94199 19.4442 5.10383 18.0014 3.66109C16.5587 2.21835 14.7205 1.23584 12.7194 0.837787C10.7182 0.439736 8.64401 0.64403 6.75898 1.42483C4.87395 2.20564 3.26279 3.52788 2.12924 5.22437C0.995687 6.92085 0.390657 8.91537 0.390656 10.9557C0.395899 13.6901 1.48446 16.311 3.41798 18.2445C5.35149 20.178 7.9724 21.2666 10.7068 21.2718ZM5.09244 10.301L9.06018 7.52361C9.19598 7.43487 9.35427 7.3867 9.51648 7.38474C9.72694 7.38474 9.92878 7.46834 10.0776 7.61716C10.2264 7.76598 10.31 7.96782 10.31 8.17828L10.31 10.9557C10.3108 10.8277 10.3417 10.7018 10.4003 10.588C10.4589 10.4743 10.5435 10.3759 10.6473 10.301L14.615 7.52361C14.7508 7.43487 14.9091 7.3867 15.0713 7.38474C15.2818 7.38474 15.4836 7.46834 15.6324 7.61716C15.7813 7.76598 15.8649 7.96782 15.8649 8.17829L15.8649 13.7331C15.8639 13.8781 15.8238 14.0201 15.7487 14.1441C15.6736 14.268 15.5664 14.3694 15.4383 14.4374C15.3097 14.5054 15.1649 14.5367 15.0197 14.528C14.8745 14.5192 14.7345 14.4707 14.615 14.3878L10.6473 11.6104C10.5435 11.5355 10.4589 11.4372 10.4003 11.3234C10.3417 11.2096 10.3108 11.0837 10.31 10.9557L10.31 13.7331C10.3091 13.8781 10.2689 14.0201 10.1938 14.1441C10.1187 14.268 10.0115 14.3694 9.88349 14.4374C9.7549 14.5054 9.61009 14.5367 9.46489 14.528C9.31969 14.5192 9.17969 14.4707 9.06018 14.3878L5.09244 11.6104C4.98802 11.5361 4.90289 11.4379 4.84415 11.324C4.78541 11.2101 4.75476 11.0839 4.75476 10.9557C4.75476 10.8276 4.78541 10.7013 4.84415 10.5874C4.90289 10.4735 4.98802 10.3753 5.09244 10.301Z" fill="black"/>
</svg>
