<svg width="29" height="29" viewBox="0 0 29 29" fill="none" xmlns="http://www.w3.org/2000/svg">
<path d="M14.5 29C17.3678 29 20.1713 28.1496 22.5558 26.5563C24.9403 24.963 26.7988 22.6984 27.8962 20.0489C28.9937 17.3994 29.2809 14.4839 28.7214 11.6712C28.1619 8.85847 26.7809 6.27482 24.753 4.24696C22.7252 2.2191 20.1415 0.838105 17.3288 0.278621C14.5161 -0.280866 11.6006 0.00628319 8.95109 1.10375C6.30156 2.20122 4.03697 4.05972 2.44369 6.44424C0.85041 8.82875 -3.89005e-07 11.6322 -6.39719e-07 14.5C0.00736902 18.3434 1.53741 22.0272 4.25509 24.7449C6.97277 27.4626 10.6566 28.9926 14.5 29ZM6.60865 13.5798L12.1856 9.67596C12.3764 9.55124 12.5989 9.48353 12.8269 9.48077C13.1227 9.48077 13.4064 9.59828 13.6156 9.80746C13.8248 10.0166 13.9423 10.3003 13.9423 10.5962L13.9423 14.5C13.9434 14.3201 13.9868 14.1431 14.0692 13.9832C14.1516 13.8233 14.2705 13.6851 14.4163 13.5798L19.9933 9.67597C20.1841 9.55124 20.4066 9.48354 20.6346 9.48077C20.9304 9.48077 21.2141 9.59828 21.4233 9.80746C21.6325 10.0166 21.75 10.3003 21.75 10.5962L21.75 18.4038C21.7487 18.6076 21.6922 18.8072 21.5867 18.9814C21.4811 19.1557 21.3304 19.2982 21.1505 19.3938C20.9697 19.4893 20.7662 19.5333 20.5621 19.5211C20.358 19.5088 20.1612 19.4406 19.9933 19.324L14.4163 15.4202C14.2705 15.3149 14.1516 15.1767 14.0692 15.0168C13.9868 14.8569 13.9434 14.6799 13.9423 14.5L13.9423 18.4038C13.941 18.6076 13.8845 18.8072 13.779 18.9814C13.6734 19.1557 13.5227 19.2982 13.3428 19.3938C13.162 19.4893 12.9585 19.5333 12.7544 19.5211C12.5503 19.5088 12.3535 19.4406 12.1856 19.324L6.60865 15.4202C6.46189 15.3158 6.34223 15.1778 6.25967 15.0177C6.1771 14.8576 6.13402 14.6801 6.13402 14.5C6.13402 14.3199 6.1771 14.1424 6.25967 13.9823C6.34223 13.8222 6.46189 13.6842 6.60865 13.5798Z" fill="black"/>
</svg>
