<svg width="22" height="22" viewBox="0 0 22 22" fill="none" xmlns="http://www.w3.org/2000/svg">
<path d="M9.06157 15.3968C9.35383 15.3968 9.59898 15.2978 9.79703 15.0997C9.99439 14.9024 10.0931 14.6576 10.0931 14.3653V8.15052C10.0931 7.85826 9.99439 7.61758 9.79703 7.42847C9.59898 7.23936 9.35383 7.14481 9.06157 7.14481C8.76931 7.14481 8.5245 7.24349 8.32714 7.44085C8.12909 7.6389 8.03007 7.88405 8.03007 8.17631V14.3911C8.03007 14.6834 8.12909 14.924 8.32714 15.1131C8.5245 15.3023 8.76931 15.3968 9.06157 15.3968ZM13.1876 15.3968C13.4798 15.3968 13.725 15.2978 13.923 15.0997C14.1204 14.9024 14.2191 14.6576 14.2191 14.3653V8.15052C14.2191 7.85826 14.1204 7.61758 13.923 7.42847C13.725 7.23936 13.4798 7.14481 13.1876 7.14481C12.8953 7.14481 12.6505 7.24349 12.4531 7.44085C12.2551 7.6389 12.1561 7.88405 12.1561 8.17631V14.3911C12.1561 14.6834 12.2551 14.924 12.4531 15.1131C12.6505 15.3023 12.8953 15.3968 13.1876 15.3968ZM11.1246 21.5858C9.69766 21.5858 8.35671 21.3149 7.10172 20.773C5.84673 20.2318 4.75506 19.497 3.82671 18.5687C2.89836 17.6403 2.16359 16.5487 1.62239 15.2937C1.08051 14.0387 0.80957 12.6977 0.80957 11.2708C0.80957 9.8439 1.08051 8.50295 1.62239 7.24796C2.16359 5.99297 2.89836 4.9013 3.82671 3.97295C4.75506 3.0446 5.84673 2.30948 7.10172 1.7676C8.35671 1.22641 9.69766 0.955811 11.1246 0.955811C12.5515 0.955811 13.8924 1.22641 15.1474 1.7676C16.4024 2.30948 17.4941 3.0446 18.4224 3.97295C19.3508 4.9013 20.0856 5.99297 20.6267 7.24796C21.1686 8.50295 21.4396 9.8439 21.4396 11.2708C21.4396 12.6977 21.1686 14.0387 20.6267 15.2937C20.0856 16.5487 19.3508 17.6403 18.4224 18.5687C17.4941 19.497 16.4024 20.2318 15.1474 20.773C13.8924 21.3149 12.5515 21.5858 11.1246 21.5858Z" fill="#3F73F3"/>
</svg>
