<svg width="22" height="22" viewBox="0 0 22 22" fill="none" xmlns="http://www.w3.org/2000/svg">
<path d="M8.4381 8.16119V13.6803C8.4381 14.0758 8.61863 14.3767 8.9797 14.583C9.34076 14.7893 9.69323 14.7721 10.0371 14.5314L14.3183 11.7976C14.645 11.5913 14.8083 11.299 14.8083 10.9208C14.8083 10.5425 14.645 10.2502 14.3183 10.0439L10.0371 7.31011C9.69323 7.0694 9.34076 7.05221 8.9797 7.25853C8.61863 7.46485 8.4381 7.76574 8.4381 8.16119ZM11.0171 21.2369C9.59007 21.2369 8.24897 20.9659 6.99384 20.424C5.73871 19.8827 4.64691 19.1479 3.71846 18.2194C2.79001 17.291 2.05515 16.1992 1.5139 14.9441C0.97196 13.6889 0.700989 12.3478 0.700989 10.9208C0.700989 9.49369 0.97196 8.15259 1.5139 6.89746C2.05515 5.64233 2.79001 4.55054 3.71846 3.62209C4.64691 2.69363 5.73871 1.95844 6.99384 1.41649C8.24897 0.875241 9.59007 0.604614 11.0171 0.604614C12.4442 0.604614 13.7853 0.875241 15.0404 1.41649C16.2956 1.95844 17.3874 2.69363 18.3158 3.62209C19.2443 4.55054 19.9791 5.64233 20.5204 6.89746C21.0623 8.15259 21.3333 9.49369 21.3333 10.9208C21.3333 12.3478 21.0623 13.6889 20.5204 14.9441C19.9791 16.1992 19.2443 17.291 18.3158 18.2194C17.3874 19.1479 16.2956 19.8827 15.0404 20.424C13.7853 20.9659 12.4442 21.2369 11.0171 21.2369Z" fill="#3F73F3"/>
</svg>
