<svg width="13" height="13" viewBox="0 0 13 13" fill="none" xmlns="http://www.w3.org/2000/svg">
<path d="M3.64237 8.89597C3.75118 9.00478 3.88967 9.05919 4.05783 9.05919C4.226 9.05919 4.36449 9.00478 4.4733 8.89597L6.19452 7.17475L7.93058 8.9108C8.03939 9.01962 8.17551 9.07145 8.33892 9.06631C8.50194 9.06156 8.63786 9.00478 8.74667 8.89597C8.85549 8.78715 8.90989 8.64866 8.90989 8.4805C8.90989 8.31233 8.85549 8.17385 8.74667 8.06503L7.02545 6.34381L8.76151 4.60775C8.87033 4.49894 8.92216 4.36283 8.91702 4.19941C8.91227 4.03639 8.85549 3.90047 8.74667 3.79166C8.63786 3.68284 8.49937 3.62844 8.33121 3.62844C8.16304 3.62844 8.02455 3.68284 7.91574 3.79166L6.19452 5.51288L4.45846 3.77682C4.34965 3.66801 4.21373 3.61597 4.05071 3.62072C3.88729 3.62587 3.75118 3.68284 3.64237 3.79166C3.53355 3.90047 3.47915 4.03896 3.47915 4.20712C3.47915 4.37529 3.53355 4.51378 3.64237 4.62259L5.36359 6.34381L3.62753 8.07987C3.51871 8.18868 3.46688 8.3246 3.47202 8.48762C3.47677 8.65104 3.53355 8.78715 3.64237 8.89597ZM6.19452 12.2791C5.37348 12.2791 4.6019 12.1232 3.87978 11.8114C3.15765 11.5 2.52951 11.0772 1.99534 10.543C1.46116 10.0088 1.03838 9.38068 0.726975 8.65856C0.415176 7.93644 0.259277 7.16485 0.259277 6.34381C0.259277 5.52277 0.415176 4.75119 0.726975 4.02907C1.03838 3.30695 1.46116 2.6788 1.99534 2.14463C2.52951 1.61046 3.15765 1.18747 3.87978 0.875673C4.6019 0.56427 5.37348 0.408569 6.19452 0.408569C7.01556 0.408569 7.78714 0.56427 8.50926 0.875673C9.23139 1.18747 9.85953 1.61046 10.3937 2.14463C10.9279 2.6788 11.3507 3.30695 11.6621 4.02907C11.9739 4.75119 12.1298 5.52277 12.1298 6.34381C12.1298 7.16485 11.9739 7.93644 11.6621 8.65856C11.3507 9.38068 10.9279 10.0088 10.3937 10.543C9.85953 11.0772 9.23139 11.5 8.50926 11.8114C7.78714 12.1232 7.01556 12.2791 6.19452 12.2791ZM6.19452 11.092C7.51017 11.092 8.63054 10.6297 9.55565 9.70494C10.4804 8.77983 10.9427 7.65946 10.9427 6.34381C10.9427 5.02817 10.4804 3.90779 9.55565 2.98268C8.63054 2.05797 7.51017 1.59562 6.19452 1.59562C4.87887 1.59562 3.7587 2.05797 2.83399 2.98268C1.90888 3.90779 1.44633 5.02817 1.44633 6.34381C1.44633 7.65946 1.90888 8.77983 2.83399 9.70494C3.7587 10.6297 4.87887 11.092 6.19452 11.092Z" fill="#FF8A8A"/>
</svg>
