<svg width="21" height="20" viewBox="0 0 21 20" fill="none" xmlns="http://www.w3.org/2000/svg">
<path d="M6.12499 14.3C6.30832 14.4833 6.54165 14.575 6.82499 14.575C7.10832 14.575 7.34165 14.4833 7.52499 14.3L10.425 11.4L13.35 14.325C13.5333 14.5083 13.7627 14.5957 14.038 14.587C14.3127 14.579 14.5417 14.4833 14.725 14.3C14.9083 14.1167 15 13.8833 15 13.6C15 13.3167 14.9083 13.0833 14.725 12.9L11.825 10L14.75 7.075C14.9333 6.89167 15.0207 6.66233 15.012 6.387C15.004 6.11233 14.9083 5.88333 14.725 5.7C14.5417 5.51667 14.3083 5.425 14.025 5.425C13.7417 5.425 13.5083 5.51667 13.325 5.7L10.425 8.6L7.49999 5.675C7.31665 5.49167 7.08765 5.404 6.81299 5.412C6.53765 5.42067 6.30832 5.51667 6.12499 5.7C5.94165 5.88333 5.84999 6.11667 5.84999 6.4C5.84999 6.68333 5.94165 6.91667 6.12499 7.1L9.02499 10L6.09999 12.925C5.91665 13.1083 5.82932 13.3373 5.83799 13.612C5.84599 13.8873 5.94165 14.1167 6.12499 14.3ZM10.425 20C9.04165 20 7.74165 19.7373 6.52499 19.212C5.30832 18.6873 4.24999 17.975 3.34999 17.075C2.44999 16.175 1.73765 15.1167 1.21299 13.9C0.687655 12.6833 0.424988 11.3833 0.424988 10C0.424988 8.61667 0.687655 7.31667 1.21299 6.1C1.73765 4.88333 2.44999 3.825 3.34999 2.925C4.24999 2.025 5.30832 1.31233 6.52499 0.787C7.74165 0.262333 9.04165 0 10.425 0C11.8083 0 13.1083 0.262333 14.325 0.787C15.5417 1.31233 16.6 2.025 17.5 2.925C18.4 3.825 19.1123 4.88333 19.637 6.1C20.1623 7.31667 20.425 8.61667 20.425 10C20.425 11.3833 20.1623 12.6833 19.637 13.9C19.1123 15.1167 18.4 16.175 17.5 17.075C16.6 17.975 15.5417 18.6873 14.325 19.212C13.1083 19.7373 11.8083 20 10.425 20ZM10.425 18C12.6417 18 14.5293 17.221 16.088 15.663C17.646 14.1043 18.425 12.2167 18.425 10C18.425 7.78333 17.646 5.89567 16.088 4.337C14.5293 2.779 12.6417 2 10.425 2C8.20832 2 6.32099 2.779 4.76299 4.337C3.20432 5.89567 2.42499 7.78333 2.42499 10C2.42499 12.2167 3.20432 14.1043 4.76299 15.663C6.32099 17.221 8.20832 18 10.425 18Z" fill="#FF8A8A"/>
</svg>
