<svg width="29" height="29" viewBox="0 0 29 29" fill="none" xmlns="http://www.w3.org/2000/svg">
<path d="M14.5 29C12.4942 29 10.6092 28.6191 8.845 27.8574C7.08083 27.0966 5.54625 26.0638 4.24125 24.7588C2.93625 23.4538 1.90337 21.9192 1.1426 20.155C0.380867 18.3908 0 16.5058 0 14.5C0 12.4942 0.380867 10.6092 1.1426 8.845C1.90337 7.08083 2.93625 5.54625 4.24125 4.24125C5.54625 2.93625 7.08083 1.90288 8.845 1.14115C10.6092 0.380383 12.4942 0 14.5 0C16.5058 0 18.3908 0.380383 20.155 1.14115C21.9192 1.90288 23.4538 2.93625 24.7588 4.24125C26.0638 5.54625 27.0966 7.08083 27.8574 8.845C28.6191 10.6092 29 12.4942 29 14.5C29 16.5058 28.6191 18.3908 27.8574 20.155C27.0966 21.9192 26.0638 23.4538 24.7588 24.7588C23.4538 26.0638 21.9192 27.0966 20.155 27.8574C18.3908 28.6191 16.5058 29 14.5 29ZM10.15 20.3H18.85C19.2608 20.3 19.6055 20.1608 19.8839 19.8824C20.1613 19.605 20.3 19.2608 20.3 18.85V10.15C20.3 9.73917 20.1613 9.39455 19.8839 9.11615C19.6055 8.83872 19.2608 8.7 18.85 8.7H10.15C9.73917 8.7 9.39503 8.83872 9.1176 9.11615C8.8392 9.39455 8.7 9.73917 8.7 10.15V18.85C8.7 19.2608 8.8392 19.605 9.1176 19.8824C9.39503 20.1608 9.73917 20.3 10.15 20.3Z" fill="black"/>
</svg>
