<svg width="22" height="22" viewBox="0 0 22 22" fill="none" xmlns="http://www.w3.org/2000/svg">
<path d="M11.114 21.2718C9.68693 21.2718 8.34583 21.0008 7.0907 20.4589C5.83557 19.9177 4.74378 19.1828 3.81532 18.2543C2.88687 17.3259 2.15202 16.2341 1.61076 14.979C1.06882 13.7238 0.797852 12.3827 0.797852 10.9557C0.797852 9.52861 1.06882 8.18751 1.61076 6.93238C2.15202 5.67724 2.88687 4.58545 3.81532 3.657C4.74378 2.72855 5.83557 1.99335 7.0907 1.45141C8.34583 0.910153 9.68693 0.639526 11.114 0.639526C12.5411 0.639526 13.8822 0.910153 15.1373 1.45141C16.3924 1.99335 17.4842 2.72855 18.4127 3.657C19.3411 4.58545 20.076 5.67724 20.6172 6.93238C21.1592 8.18751 21.4301 9.52861 21.4301 10.9557C21.4301 12.3827 21.1592 13.7238 20.6172 14.979C20.076 16.2341 19.3411 17.3259 18.4127 18.2543C17.4842 19.1828 16.3924 19.9177 15.1373 20.4589C13.8822 21.0008 12.5411 21.2718 11.114 21.2718ZM8.01915 15.0821H14.2088C14.5011 15.0821 14.7463 14.9831 14.9444 14.785C15.1418 14.5876 15.2405 14.3428 15.2405 14.0505V7.86083C15.2405 7.56854 15.1418 7.32336 14.9444 7.12529C14.7463 6.9279 14.5011 6.82921 14.2088 6.82921H8.01915C7.72686 6.82921 7.48203 6.9279 7.28464 7.12529C7.08657 7.32336 6.98754 7.56854 6.98754 7.86083V14.0505C6.98754 14.3428 7.08657 14.5876 7.28464 14.785C7.48203 14.9831 7.72686 15.0821 8.01915 15.0821Z" fill="black"/>
</svg>
